<svg width="465" height="91" fill="none" xmlns="http://www.w3.org/2000/svg"><path d="M151.261 45.5c0 25.129-30.055 45.5-67.13 45.5C47.054 91 17 70.629 17 45.5S47.055 0 84.13 0c37.076 0 67.131 20.371 67.131 45.5z" fill="#00B9E1"/><path d="M42.548 60.503c-2.66-.109-4.947 2.09-3.644 4.395 1.51 2.674 4.443 5.25 8.645 7.54 6.575 3.582 15.855 6.243 26.274 7.532 10.42 1.29 21.34 1.13 30.92-.453 6.038-.998 11.311-2.522 15.495-4.45 2.697-1.244 2.008-4.68-.877-5.299-1.084-.233-2.211.07-3.136.698-3.618 2.453-9.099 4.36-15.754 5.46-7.592 1.254-16.246 1.38-24.504.358-8.257-1.022-15.611-3.13-20.822-5.97-2.888-1.573-5.02-3.318-6.316-5.136-1.537-2.156-3.62-4.566-6.281-4.675z" fill="#fff"/><ellipse rx="10.127" ry="5.601" transform="matrix(.9994 .03442 -.04432 .99902 64.865 31.5)" fill="#fff"/><ellipse rx="10.127" ry="5.601" transform="matrix(.9994 .03442 -.04432 .99902 110.787 33.594)" fill="#fff"/><path d="M185.914 67.586c3.691 0 7.266-.645 10.723-1.992l-1.348-7.149c-2.754 1.172-5.508 1.758-8.379 1.758-8.467 0-12.744-4.775-12.744-14.355 0-8.73 4.365-13.682 11.104-13.682 3.164 0 6.005 1.26 7.763 3.428l4.336-5.655c-2.197-3.28-6.65-5.127-12.158-5.127-12.217 0-19.19 7.793-19.19 21.329 0 14.297 6.68 21.445 19.893 21.445zM221.949 67h7.94V46.785c0-7.265-3.75-11.426-10.313-11.426-4.629 0-6.709 2.051-7.295 6.211h-.761V23.055h-7.94V67h7.94V51.004c0-5.479 2.021-8.174 5.976-8.174 2.842 0 4.453 1.963 4.453 5.42V67zm35.655.293L268.736 67v-6.445l-4.306-.645V48.426c0-8.203-5.391-12.54-16.641-12.686l-6.768-.088-.585 7.207 7.939.206c5.596.146 8.437 1.61 8.437 4.921v.088c-1.874-.41-3.779-.615-6.357-.615-8.818 0-13.828 3.838-13.828 10.781 0 5.977 3.838 9.346 10.459 9.346 5.391 0 8.76-2.373 9.316-7.148h.703l.499 6.855zm-.792-12.686c-.117 3.106-2.724 6.3-7.763 6.3-2.842 0-4.365-1.143-4.365-3.253 0-2.314 2.138-3.515 6.152-3.515 2.051 0 3.721 0 5.976.468zm36.827 12.979c2.783 0 5.097-.234 7.675-.703l-.703-7.412c-2.636.351-4.599.586-6.386.586-5.596 0-7.852-2.022-7.852-6.768V43.24h13.77v-7.295h-13.77V26.57h-7.91v9.375h-7.442v7.295h7.442v10.81c0 9.464 4.453 13.536 15.176 13.536zm35.156 0c2.783 0 5.098-.234 7.676-.703l-.703-7.412c-2.637.351-4.6.586-6.387.586-5.596 0-7.852-2.022-7.852-6.768V43.24h13.77v-7.295h-13.77V26.57h-7.91v9.375h-7.441v7.295h7.441v10.81c0 9.464 4.453 13.536 15.176 13.536zM343.971 67h28.593v-7.324h-9.199v-23.73h-17.636v7.324h9.726v16.406h-11.484V67zm15.088-35.244c3.017 0 5.068-2.05 5.068-5.069 0-3.017-2.051-5.068-5.068-5.068-3.018 0-5.069 2.05-5.069 5.069 0 3.017 2.051 5.068 5.069 5.068zM397.73 67h7.94V46.785c0-7.265-3.75-11.426-10.313-11.426-4.628 0-6.709 2.051-7.295 6.211h-.878l-.733-5.625h-7.09V67h7.94V51.502c0-5.772 2.021-8.613 5.976-8.613 2.842 0 4.453 2.109 4.453 5.859V67zm17.696 14.004l9.082-.293c11.367-.38 16.318-5.39 16.318-16.465v-28.3h-7.353l-.498 5.624h-.557c-.732-4.16-3.047-6.21-7.764-6.21-7.763 0-12.246 5.888-12.246 16.142 0 10.371 4.483 16.084 12.188 16.084 4.336 0 7.031-2.08 7.646-6.211h.645v3.809c0 5.595-2.344 8.466-7.793 8.613l-9.961.293.293 6.914zm17.461-29.502c0 6.035-1.553 8.613-6.065 8.613-3.984 0-6.064-2.9-6.064-8.613 0-5.508 2.197-8.672 6.064-8.672 4.043 0 6.065 2.666 6.065 8.672z" fill="#00B9E1"/></svg>