<svg width="465" height="91" fill="none" xmlns="http://www.w3.org/2000/svg"><g clip-path="url(#clip0)" fill="#36C1C2"><path d="M134.833 19.796c4.096-3.289 4.073-9.546-.575-11.991-6.851-3.605-14.679-5.927-22.904-6.74-11.904-1.177-23.956.875-34.24 5.83C66.829 11.848 58.9 19.421 54.592 28.408c-4.31 8.988-4.754 18.874-1.263 28.088 3.49 9.213 10.717 17.226 20.53 22.763 9.813 5.538 21.65 8.282 33.628 7.798 11.978-.485 23.411-4.17 32.482-10.471 5.991-4.162 10.725-9.308 13.917-15.044 2.613-4.697-.894-9.982-6.204-10.823-4.715-.746-9.108 2.38-11.724 6.373-2.033 3.104-4.782 5.899-8.13 8.225-5.941 4.127-13.429 6.54-21.275 6.858-7.845.317-15.597-1.48-22.025-5.107-6.427-3.627-11.16-8.875-13.446-14.91-2.287-6.034-1.995-12.51.827-18.396 2.823-5.886 8.015-10.846 14.751-14.091 6.736-3.245 14.63-4.59 22.426-3.818 5.424.536 10.585 2.074 15.094 4.463 3.405 1.804 7.649 1.892 10.653-.521z"/><path fill-rule="evenodd" clip-rule="evenodd" d="M64.157 72.221l.072.058c4.24 3.462 3.672 11.199-1.044 18.016 9.375-1.976 21.88-3.182 35.611-3.182 2.024 0 4.021.026 5.986.077V72.842a16.026 16.026 0 01-4.926.754c-2.87 0-5.49-.715-7.474-1.89h-18.07v.515H64.156z"/><circle cx="146.189" cy="37.589" r="8.591" transform="rotate(13.849 146.189 37.589)"/><circle cx="125.339" cy="42.548" r="7.047" transform="rotate(13.849 125.339 42.548)"/><circle cx="107.238" cy="46.899" r="5.728" transform="rotate(13.849 107.238 46.9)"/><path d="M197.675 72.99c-3.655 0-7.03-.888-10.127-2.665a21.001 21.001 0 01-7.31-7.31c-1.776-3.096-2.664-6.472-2.664-10.127V36.67c0-3.655.888-7.005 2.664-10.05 1.828-3.097 4.264-5.534 7.31-7.31 3.097-1.828 6.472-2.741 10.127-2.741 3.198 0 6.168.583 8.909 1.75 2.741 1.117 5.076 2.767 7.005 4.95.304.355.457.787.457 1.294 0 .508-.203 1.016-.61 1.523l-3.35 3.503c-.406.406-.812.609-1.218.609-.508 0-.965-.229-1.371-.685-2.538-2.69-5.786-4.036-9.746-4.036-1.929 0-3.731.508-5.406 1.523-1.675 1.015-3.02 2.386-4.035 4.112a11.208 11.208 0 00-1.447 5.558v16.218c0 1.98.482 3.833 1.447 5.559 1.015 1.726 2.36 3.096 4.035 4.111 1.675 1.016 3.477 1.523 5.406 1.523 1.929 0 3.731-.482 5.406-1.447a10.593 10.593 0 003.96-3.959c.964-1.675 1.446-3.502 1.446-5.482v-3.731H198.36c-.457 0-.837-.152-1.142-.457a1.552 1.552 0 01-.457-1.142V42.38c0-.457.153-.838.457-1.142.305-.305.685-.457 1.142-.457h16.066c.914 0 1.675.33 2.285.99.659.609.989 1.37.989 2.284v8.832c0 3.655-.913 7.03-2.741 10.127-1.776 3.046-4.213 5.483-7.309 7.31-3.046 1.776-6.371 2.665-9.975 2.665zm47.312 0c-3.299 0-6.345-.787-9.137-2.36a18.393 18.393 0 01-6.548-6.549c-1.624-2.74-2.437-5.71-2.437-8.908v-9.975c0-3.198.813-6.167 2.437-8.909 1.624-2.74 3.807-4.898 6.548-6.472 2.792-1.624 5.838-2.436 9.137-2.436 3.3 0 6.32.812 9.061 2.436 2.792 1.574 5 3.731 6.625 6.472 1.624 2.742 2.436 5.711 2.436 8.909v9.975c0 3.198-.812 6.167-2.436 8.908-1.625 2.741-3.833 4.924-6.625 6.548-2.741 1.574-5.761 2.36-9.061 2.36zm0-8.833c2.488 0 4.594-.863 6.32-2.588 1.777-1.777 2.665-3.91 2.665-6.396v-9.975c0-2.487-.888-4.594-2.665-6.32-1.726-1.776-3.832-2.665-6.32-2.665-2.487 0-4.619.889-6.396 2.665-1.726 1.726-2.589 3.833-2.589 6.32v9.975c0 2.487.863 4.619 2.589 6.395 1.777 1.726 3.909 2.59 6.396 2.59zM275.124 72c-.457 0-.837-.152-1.142-.457-.305-.304-.457-.685-.457-1.142V29.97c0-.457.152-.838.457-1.143.305-.304.685-.456 1.142-.456h5.939c.457 0 .838.152 1.142.456.305.305.457.686.457 1.142v3.96c1.472-2.183 3.198-3.807 5.178-4.873 2.03-1.117 4.162-1.675 6.396-1.675 2.792 0 5.254.66 7.386 1.98 2.182 1.32 3.908 3.197 5.177 5.634 1.422-2.386 3.325-4.239 5.711-5.558a15.185 15.185 0 017.69-2.056c4.416 0 7.919 1.472 10.508 4.416 2.589 2.893 3.883 6.751 3.883 11.574V70.4c0 .457-.152.838-.457 1.142-.304.305-.685.457-1.142.457h-5.939c-.457 0-.838-.152-1.142-.457-.305-.304-.457-.685-.457-1.142V44.513c0-2.69-.609-4.746-1.827-6.168-1.219-1.472-2.97-2.208-5.254-2.208-2.995 0-5.381.99-7.158 2.97-1.725 1.928-2.588 4.593-2.588 7.995V70.4c0 .457-.153.838-.457 1.142-.305.305-.686.457-1.142.457h-5.939c-.457 0-.838-.152-1.143-.457-.304-.304-.456-.685-.456-1.142V44.513c0-2.69-.61-4.746-1.828-6.168-1.218-1.472-2.969-2.208-5.254-2.208-2.995 0-5.38.99-7.157 2.97-1.726 1.928-2.589 4.593-2.589 7.995V70.4c0 .457-.152.838-.457 1.142-.304.305-.685.457-1.142.457h-5.939zm76.788 0c-.914 0-1.701-.305-2.361-.914-.609-.66-.913-1.446-.913-2.36V22.508h-6.929c-.457 0-.838-.153-1.143-.457-.304-.305-.456-.685-.456-1.142v-5.635c0-.457.152-.837.456-1.142.305-.305.686-.457 1.143-.457H354.5c.914 0 1.676.33 2.285.99.66.61.99 1.37.99 2.284v46.218h6.929c.456 0 .837.153 1.142.457.304.305.456.686.456 1.142v5.635c0 .457-.152.838-.456 1.142-.305.305-.686.457-1.142.457h-12.792zm38.519.99c-3.3 0-6.346-.787-9.137-2.36a18.396 18.396 0 01-6.549-6.549c-1.624-2.74-2.436-5.71-2.436-8.908v-9.975c0-3.198.812-6.167 2.436-8.909 1.625-2.74 3.807-4.898 6.549-6.472 2.791-1.624 5.837-2.436 9.137-2.436 3.299 0 6.319.812 9.061 2.436 2.791 1.574 5 3.731 6.624 6.472 1.624 2.742 2.436 5.711 2.436 8.909v9.975c0 3.198-.812 6.167-2.436 8.908-1.624 2.741-3.833 4.924-6.624 6.548-2.742 1.574-5.762 2.36-9.061 2.36zm0-8.833c2.487 0 4.594-.863 6.319-2.588 1.777-1.777 2.665-3.91 2.665-6.396v-9.975c0-2.487-.888-4.594-2.665-6.32-1.725-1.776-3.832-2.665-6.319-2.665-2.488 0-4.62.889-6.396 2.665-1.726 1.726-2.589 3.833-2.589 6.32v9.975c0 2.487.863 4.619 2.589 6.395 1.776 1.726 3.908 2.59 6.396 2.59z"/></g><defs><clipPath id="clip0"><path fill="#fff" d="M0 0h465v91H0z"/></clipPath></defs></svg>